<svg width="16" height="14" viewBox="0 0 16 14" fill="none" xmlns="http://www.w3.org/2000/svg">
<path d="M14.75 0.25H1.25C0.951631 0.25 0.665483 0.368526 0.454505 0.579505C0.243526 0.790483 0.125 1.07663 0.125 1.375V12.625C0.125 12.9234 0.243526 13.2095 0.454505 13.4205C0.665483 13.6315 0.951631 13.75 1.25 13.75H14.75C15.0484 13.75 15.3345 13.6315 15.5455 13.4205C15.7565 13.2095 15.875 12.9234 15.875 12.625V1.375C15.875 1.07663 15.7565 0.790483 15.5455 0.579505C15.3345 0.368526 15.0484 0.25 14.75 0.25ZM1.25 1.375H10.25V12.625H1.25V1.375ZM14.75 12.625H11.375V1.375H14.75V12.625Z" fill="white"/>
</svg>
