<svg width="18" height="19" viewBox="0 0 18 19" fill="none" xmlns="http://www.w3.org/2000/svg">
<path d="M13.5 9.5H15V3.5H9V5H13.5V9.5Z" fill="white"/>
<path d="M3 15.5H9V14H4.5V9.5H3V15.5Z" fill="white"/>
<path d="M16.5 18.5H1.5C1.1023 18.4996 0.720997 18.3414 0.439779 18.0602C0.15856 17.779 0.000397108 17.3977 0 17V2C0.000397108 1.6023 0.15856 1.221 0.439779 0.939779C0.720997 0.65856 1.1023 0.500397 1.5 0.5H16.5C16.8977 0.500397 17.279 0.65856 17.5602 0.939779C17.8414 1.221 17.9996 1.6023 18 2V17C17.9996 17.3977 17.8414 17.779 17.5602 18.0602C17.279 18.3414 16.8977 18.4996 16.5 18.5ZM1.5 2V17H16.5007L16.5 2H1.5Z" fill="white"/>
</svg>
