<svg width="60" height="35" viewBox="0 0 60 35" fill="none" xmlns="http://www.w3.org/2000/svg">
<rect width="60" height="35" rx="8" fill="#E20338"/>
<circle cx="12" cy="17.5" r="4" fill="white"/>
<path d="M27.3864 11.3636H24.9659V23H27.3864V11.3636ZM29.3253 23H31.7457V14.2727H29.3253V23ZM30.5412 13.1477C31.2628 13.1477 31.8537 12.5966 31.8537 11.9205C31.8537 11.25 31.2628 10.6989 30.5412 10.6989C29.8253 10.6989 29.2344 11.25 29.2344 11.9205C29.2344 12.5966 29.8253 13.1477 30.5412 13.1477ZM41.821 14.2727H39.2585L37.4517 20.517H37.3608L35.5483 14.2727H32.9915L36.0426 23H38.7699L41.821 14.2727ZM46.7401 23.1705C48.8991 23.1705 50.3537 22.1193 50.6946 20.5L48.456 20.3523C48.2116 21.017 47.5866 21.3636 46.7798 21.3636C45.5696 21.3636 44.8026 20.5625 44.8026 19.2614V19.2557H50.7457V18.5909C50.7457 15.625 48.9503 14.1591 46.6435 14.1591C44.0753 14.1591 42.4105 15.983 42.4105 18.6761C42.4105 21.4432 44.0526 23.1705 46.7401 23.1705ZM44.8026 17.7557C44.8537 16.7614 45.6094 15.9659 46.6832 15.9659C47.7344 15.9659 48.4616 16.7159 48.4673 17.7557H44.8026Z" fill="white"/>
</svg>
