<svg width="12" height="15" viewBox="0 0 12 15" fill="none" xmlns="http://www.w3.org/2000/svg">
<path d="M3 0H1.5C1.10218 0 0.720645 0.158035 0.43934 0.43934C0.158036 0.720644 0 1.10218 0 1.5V13.5C0 13.8978 0.158036 14.2794 0.43934 14.5607C0.720645 14.842 1.10218 15 1.5 15H3C3.39782 15 3.77936 14.842 4.06066 14.5607C4.34196 14.2794 4.5 13.8978 4.5 13.5V1.5C4.5 1.10218 4.34196 0.720644 4.06066 0.43934C3.77936 0.158035 3.39782 0 3 0Z" fill="white"/>
<path d="M10.5 0H9C8.60218 0 8.22064 0.158035 7.93934 0.43934C7.65804 0.720644 7.5 1.10218 7.5 1.5V13.5C7.5 13.8978 7.65804 14.2794 7.93934 14.5607C8.22064 14.842 8.60218 15 9 15H10.5C10.8978 15 11.2794 14.842 11.5607 14.5607C11.842 14.2794 12 13.8978 12 13.5V1.5C12 1.10218 11.842 0.720644 11.5607 0.43934C11.2794 0.158035 10.8978 0 10.5 0Z" fill="white"/>
</svg>
