<svg width="22" height="21" viewBox="0 0 22 21" fill="none" xmlns="http://www.w3.org/2000/svg">
<path d="M15.5 16.5H12.5V15H15.5V12H17V15C16.9996 15.3977 16.8414 15.779 16.5602 16.0602C16.279 16.3414 15.8977 16.4996 15.5 16.5V16.5Z" fill="white"/>
<path d="M6.5 9H5V6C5.0004 5.6023 5.15856 5.221 5.43978 4.93978C5.721 4.65856 6.1023 4.5004 6.5 4.5H9.5V6H6.5V9Z" fill="white"/>
<path d="M20 4.5H17V1.5C16.9996 1.1023 16.8414 0.720997 16.5602 0.439778C16.279 0.15856 15.8977 0.000397108 15.5 0H2C1.6023 0.000397108 1.221 0.15856 0.939778 0.439778C0.65856 0.720997 0.500397 1.1023 0.5 1.5V15C0.500397 15.3977 0.65856 15.779 0.939778 16.0602C1.221 16.3414 1.6023 16.4996 2 16.5H5V19.5C5.0004 19.8977 5.15856 20.279 5.43978 20.5602C5.721 20.8414 6.1023 20.9996 6.5 21H20C20.3977 20.9996 20.779 20.8414 21.0602 20.5602C21.3414 20.279 21.4996 19.8977 21.5 19.5V6C21.4996 5.6023 21.3414 5.221 21.0602 4.93978C20.779 4.65856 20.3977 4.5004 20 4.5V4.5ZM20 19.5H6.5V16.5H9.5V15H6.5V12H5V15H2V1.5H15.5V4.5H12.5V6H15.5V9H17V6H20V19.5Z" fill="white"/>
</svg>
