<svg width="17" height="19" viewBox="0 0 17 19" fill="none" xmlns="http://www.w3.org/2000/svg">
<path d="M1.25 18.5C1.05109 18.5 0.860322 18.421 0.71967 18.2803C0.579018 18.1397 0.5 17.9489 0.5 17.75V1.24999C0.500022 1.11967 0.534006 0.991593 0.5986 0.878399C0.663195 0.765205 0.756171 0.670796 0.868365 0.604479C0.980559 0.538162 1.1081 0.502226 1.23841 0.500212C1.36872 0.498198 1.49731 0.530176 1.6115 0.592994L16.6115 8.84299C16.7291 8.90774 16.8271 9.00285 16.8954 9.11842C16.9637 9.23398 16.9998 9.36576 16.9998 9.49999C16.9998 9.63423 16.9637 9.76601 16.8954 9.88157C16.8271 9.99713 16.7291 10.0922 16.6115 10.157L1.6115 18.407C1.50076 18.468 1.37641 18.5 1.25 18.5Z" fill="white"/>
</svg>
