<svg width="18" height="21" viewBox="0 0 18 21" fill="none" xmlns="http://www.w3.org/2000/svg">
<path d="M15.825 6.495L14.685 7.5C15.3921 8.33851 15.7686 9.40643 15.7438 10.503C15.7189 11.5996 15.2944 12.6494 14.55 13.455L15.6525 14.475C16.6446 13.3998 17.2098 11.9991 17.2415 10.5364C17.2733 9.07369 16.7695 7.64978 15.825 6.5325V6.495Z" fill="white"/>
<path d="M12 21C11.9008 20.9996 11.8026 20.9795 11.7112 20.9409C11.6198 20.9022 11.537 20.8459 11.4675 20.775L5.7525 15H0.75C0.551088 15 0.360322 14.921 0.21967 14.7803C0.0790178 14.6397 0 14.4489 0 14.25V6.74999C0 6.55108 0.0790178 6.36031 0.21967 6.21966C0.360322 6.07901 0.551088 5.99999 0.75 5.99999H5.7525L11.4675 0.224992C11.608 0.0853033 11.7981 0.00689697 11.9963 0.00689697C12.1944 0.00689697 12.3845 0.0853033 12.525 0.224992C12.6663 0.363464 12.7472 0.552165 12.75 0.749992V20.25C12.75 20.4489 12.671 20.6397 12.5303 20.7803C12.3897 20.921 12.1989 21 12 21Z" fill="white"/>
</svg>
