<svg width="22" height="21" viewBox="0 0 22 21" fill="none" xmlns="http://www.w3.org/2000/svg">
<path d="M19.37 4.56L18.2225 5.5275C19.4014 6.92395 20.0298 8.70279 19.9898 10.5299C19.9497 12.3569 19.2439 14.1065 18.005 15.45L19.1075 16.5C20.5953 14.8879 21.443 12.7878 21.4913 10.5946C21.5396 8.40146 20.7853 6.26613 19.37 4.59V4.56Z" fill="white"/>
<path d="M15.185 7.5C15.8921 8.33852 16.2686 9.40644 16.2438 10.503C16.2189 11.5996 15.7944 12.6494 15.05 13.455L16.1525 14.475C17.1447 13.3998 17.7098 11.9991 17.7415 10.5364C17.7733 9.07369 17.2695 7.64979 16.325 6.5325L15.185 7.5Z" fill="white"/>
<path d="M12.5 21C12.4008 20.9996 12.3026 20.9795 12.2112 20.9409C12.1198 20.9022 12.037 20.8459 11.9675 20.775L6.2525 15H1.25C1.05109 15 0.860322 14.921 0.71967 14.7803C0.579018 14.6397 0.5 14.4489 0.5 14.25V6.74999C0.5 6.55108 0.579018 6.36031 0.71967 6.21966C0.860322 6.07901 1.05109 5.99999 1.25 5.99999H6.2525L11.9675 0.224991C12.108 0.0853033 12.2981 0.00689697 12.4963 0.00689697C12.6944 0.00689697 12.8845 0.0853033 13.025 0.224991C13.1663 0.363464 13.2472 0.552165 13.25 0.749991V20.25C13.25 20.4489 13.171 20.6397 13.0303 20.7803C12.8897 20.921 12.6989 21 12.5 21Z" fill="white"/>
</svg>
