<svg width="23" height="21" viewBox="0 0 23 21" fill="none" xmlns="http://www.w3.org/2000/svg">
<path d="M22.25 7.8075L21.1925 6.75L18.5 9.4425L15.8075 6.75L14.75 7.8075L17.4425 10.5L14.75 13.1925L15.8075 14.25L18.5 11.5575L21.1925 14.25L22.25 13.1925L19.5575 10.5L22.25 7.8075Z" fill="white"/>
<path d="M12.5 21C12.4008 20.9996 12.3026 20.9795 12.2112 20.9409C12.1198 20.9022 12.037 20.8459 11.9675 20.775L6.2525 15H1.25C1.05109 15 0.860322 14.921 0.71967 14.7803C0.579018 14.6397 0.5 14.4489 0.5 14.25V6.74999C0.5 6.55108 0.579018 6.36031 0.71967 6.21966C0.860322 6.07901 1.05109 5.99999 1.25 5.99999H6.2525L11.9675 0.224992C12.108 0.0853033 12.2981 0.00689697 12.4963 0.00689697C12.6944 0.00689697 12.8845 0.0853033 13.025 0.224992C13.1663 0.363464 13.2472 0.552165 13.25 0.749992V20.25C13.25 20.4489 13.171 20.6397 13.0303 20.7803C12.8897 20.921 12.6989 21 12.5 21Z" fill="white"/>
</svg>
